<?xml version="1.0" encoding="UTF-8"?>
<svg version="1.1" viewBox="0 0 2000 2000" width="1280" height="1280" xmlns="http://www.w3.org/2000/svg">
<path transform="translate(1578,1564)" d="m0 0 4 1 7 8 11 12 9 11 8 8 7 8 12 13 7 8 5 6-1 4-4 2-1 3-6 5-1 2-6-2-19-10-28-15-21-11h-3l11 27 16 40 3 7v5l-7 7-6 5-5-2-12-13-36-40-11-12-7-8 1-3 10-8 6 5 7 8 15 16 7 8 9 10 7 8v-3l-16-38-12-29-1-5 8-8 5 1 23 12 44 24-2-4-8-8-7-8-11-12-9-10-7-8-5-6 2-4z" fill="white"/>
<path transform="translate(551,1672)" d="m0 0 6 2 8 5-2 6-9 15-14 24-8 13-5 9 11-9 10-9 11-9 15-13 15-12 6 2 6 4-1 9-11 57-3 15 8-13 8-14 14-24 8-14 5 1 10 5-8 16-14 24-14 25-12 21-3 4-6-2-11-7-1-1 1-11 12-69 1-4-22 18-13 11-14 11-15 13-3 1-14-8-3-4 28-48 13-23z" fill="white"/>
<path transform="translate(1390,177)" d="m0 0h5l8 5 6 3-1 13-9 61-1 11 10-9 11-9 7-7 11-9 13-12 8-7 5-2 16 8 1 3-18 34-10 18-13 24-7 12-3 1-11-6-1-2 10-18 13-24 12-22v-2l-26 24-11 9-7 7-8 7-7 6-4-1-8-4-1-4 6-36 6-37v-4l-15 28-12 22-9 16-6-2-8-5 2-5 16-30 12-22 11-20 6-12z" fill="white"/>
<path transform="translate(406,308)" d="m0 0 5 1 12 12 7 8 15 15 7 8 21 21v2h2l4 5-1 4-8 8-5-3-7-7-7-8-21-21-7-8-8-8 10 23 19 42 4 8-2 5-5 5-4 1-72-36 11 12 17 17 7 8 17 17v4l-7 6-1 2-5-1-7-7-7-8-13-13-7-8-16-16v-2l-3-1-7-8-9-9 1-3 8-7 5-5 5 1 51 25 22 11-14-32-18-42-1-6z" fill="white"/>
<path transform="translate(1904,1080)" d="m0 0h6l-2 14-2 2-56 4-22 1-1 1 20 9 41 18 12 6 1 4-3 13-50 6-31 3 8 4 66 26 1 3-2 12-1 2-9-3-25-11-37-16-26-11-1-1 1-10 2-7 47-5 30-3h6v-2l-5-1-31-14-39-17-1-1 1-14 2-3 16-2z" fill="white"/>
<path transform="translate(107,816)" d="m0 0 16 6 56 22 25 10 2 2-1 13-1 3-17 3-64 8-1 1 19 8 32 13 24 10 2 4-3 13-5 2-82 9-10 1h-9l1-12 1-3 13-2 66-6 1-1-17-7-46-19-11-5v-10l2-6 7-2 68-9 5-1-26-10-28-10-20-8-1-1 1-15z" fill="white"/>
<path transform="translate(1268,1761)" d="m0 0 5 1 19 64 9 30-1 5-13 4-4-1-11-9-10-10-8-7-13-12-11-9-9-9-5-3 9 29 12 40v5l-8 3-6 1-3-6-17-57-9-31-1-5 12-4h7l14 13 8 7 24 22 8 7 11 10 2 1-5-15-15-51-2-10z" fill="white"/>
<path transform="translate(751,123)" d="m0 0 5 1 23 71 8 25-5 3-12 4-11-9-12-11-11-9-10-9-11-9-10-9-5-3 12 36 11 34v4l-11 4-4-1-13-38-14-43-4-12 1-5 12-4h5l15 13 13 11 10 9 11 9 10 9 10 8-14-41-10-31v-3z" fill="white"/>
<path transform="translate(1784,610)" d="m0 0h21l11 4 9 6 8 8 7 12 4 14v15l-4 13-6 9-5 6-11 8-13 6-16 3-14-1-12-4-9-7-7-7-8-15-3-13v-12l3-12 6-10 5-6 12-9 11-5zm4 16-13 4-11 7-9 9-4 8-1 5v9l3 10 5 8 9 8 8 3h16l16-5 10-7 7-7 5-10v-17l-4-10-9-10-8-4-4-1z" fill="white"/>
<path transform="translate(1656,1487)" d="m0 0h17l12 4 12 7 12 11 7 11 4 9 1 4v18l-4 12-7 11-5 6-10 7-8 4-8 2h-17l-13-4-10-6-10-9-6-7-7-14-2-7v-16l4-12 6-10 9-10 13-8zm3 15-9 2-9 6-7 8-4 9-1 5v10l4 10 7 9 8 8 16 8 5 1h11l9-4 8-6 6-8 3-9v-14l-4-9-8-11-9-7-12-6-8-2z" fill="white"/>
<path transform="translate(313,425)" d="m0 0 14 1 13 5 11 7 11 11 8 14 3 11v12l-3 12-6 11-9 10-8 6-12 5-5 1h-16l-13-4-11-6-10-9-7-9-6-12-2-9v-11l3-12 5-10 8-10 11-8 12-5zm-7 16-10 4-6 5-7 10-3 11v9l4 10 6 8 8 8 11 6 8 3 4 1h10l11-4 8-7 6-10 2-6v-13l-7-14-9-10-13-8-9-3z" fill="white"/>
<path transform="translate(1246,124)" d="m0 0 15 1 12 4 11 7 8 8 7 14 2 7v18l-4 15-6 12-11 12-10 6-9 3-14 1-13-2-12-5-9-7-7-8-5-10-3-11v-15l4-15 6-12 8-10 11-8 11-4zm2 14-12 3-9 7-6 9-5 12-2 11v8l3 12 7 9 9 6 5 2 6 1h9l10-3 8-6 7-9 4-10 2-8v-19l-4-10-9-9-11-5z" fill="white"/>
<path transform="translate(723,1761)" d="m0 0h13l10 2 14 7 10 9 7 10 3 9 1 6v12l-3 15-8 16-11 12-10 6-11 3h-18l-14-4-11-7-8-8-7-13-2-8v-20l5-16 7-12 10-10 8-5 8-3zm-1 14-10 5-9 10-6 12-3 12v14l3 10 9 10 10 5 4 1h16l10-5 8-8 6-10 4-14v-18l-4-10-4-5-9-6-8-3z" fill="white"/>
<path transform="translate(197,1265)" d="m0 0h21l11 4 9 6 8 8 8 16 3 14-1 14-4 11-8 11-9 8-14 7-10 3-7 1h-13l-11-3-8-4-10-9-6-9-5-11-2-8v-17l5-14 8-10 8-7 10-6 11-4zm7 15-16 4-10 6-8 7-4 7-3 9v11l4 11 6 8 8 6 12 3 13-1 15-5 11-8 7-8 3-8v-17l-6-12-4-5-10-6-8-2z" fill="white"/>
<path transform="translate(398,1541)" d="m0 0 5 1 49 49 1 3-8 7-64 64-5-2-47-47-1-3 3-3h2l2-4 4-1 38 38 4-2 16-16-2-4-31-31 1-4 5-5 5-1 33 33h3l2-4 8-7 10-10 1-2-4-2-14-14-7-8-12-12-4-3 1-4z" fill="white"/>
<path transform="translate(500,238)" d="m0 0 4 1 5 8-1 4-16 11-11 8-13 9-3 2 2 5 7 10 7 9 9-6 16-12 14-10 4 2 1 4h2l2 5-11 9-18 13-9 6h-2l7 11 8 11 2 5 7-3 16-12 17-12 8-6 4 2 5 7-1 4-19 13-17 13-16 11-6 4-3-1-13-19-12-16-13-19-12-16-8-11v-3l20-14 13-10 19-13z" fill="white"/>
<path transform="translate(136,712)" d="m0 0 9 1 5 3-14 48-1 6 24 7h3l10-36 3-10 3-1 10 3 1 3-12 42v4l28 8h2l8-30 7-24 4-1 10 3-1 8-16 55-3 9-2 1-11-4-53-15-31-9-2-1 1-8 16-57z" fill="white"/>
<path transform="translate(1479,1649)" d="m0 0 4 2 14 21 17 25 21 31 3 4-1 4-11 8-12 8-31 21-3 2-4-1-5-8v-3l17-11 13-9 15-10v-3l-14-21-11 7-24 16-4 3-5-1-6-9 12-9 18-12 10-7-2-5-10-16-3-5-5 1-23 16-20 13-3 1-7-11 4-4 54-36z" fill="white"/>
<path transform="translate(1779,1212)" d="m0 0 10 2 48 15 41 13-1 7-18 57-2 6-7-1-6-3 1-7 14-44v-4l-25-7-2-1-4 16-10 31-7-1-6-2 1-8 13-41-9-2-19-6h-3l-17 55-9-2-5-3 13-42z" fill="white"/>
<path transform="translate(935,1805)" d="m0 0h25l40 1 9 1 1 6-3 96-1 1h-24l-40-1-9-1v-11l1-3 37 1 20 1v-24l1-5-42-1-9-1 1-14 50 2 1-33-58-1-1-1v-11z" fill="white"/>
<path transform="translate(972,89)" d="m0 0 71 1 2 1-1 13h-28l-29-1v29l49 1 1 1v13h-50l-1 32h27l31 1 1 1v12l-4 1-70-1-1-1v-64l1-38z" fill="white"/>
<path transform="translate(469,1609)" d="m0 0 5 2 14 11 15 12 13 10 12 9-1 5-10 12-9 12-13 16-13 17-13 16-5 5-14-11-16-13-17-13-10-8 6-9 5-1 16 13 17 13 9 7 5-5 10-12 2-3v-3l-13-10-16-13-9-7 5-5 3-2 6 1 13 9 16 13 4 3 3-1 11-14 7-8v-2l-12-9-16-13-17-13 1-4z" fill="white"/>
<path transform="translate(1515,250)" d="m0 0 5 1 17 13 16 12 19 14 3 4-7 9-4-1-12-9-19-14-11-8-3-1-2 5-12 17 1 3 11 8 18 13 8 6-2 5-5 7-7-4-13-10-15-11-4-3-4 1-12 17-5 7 4 2 16 12 19 14 8 6-7 11-5-2-28-21-19-14-9-7 3-5 10-13 10-14 14-19 13-18 9-12z" fill="white"/>
<path transform="translate(1602,317)" d="m0 0 4 2 7 7 8 7 9 9 2 1v2l4 2 20 20v2l-5 4-4 4-8-7-9-9-8-7-14-14-4-1-9 10-8 8 1 4 12 12 8 7 13 13-3 5-5 5-4-2-32-30-4 1-15 16-4 4 2 4 12 11 11 11 8 7 7 6 1 3-8 9-6-4-14-14-8-7-13-13-8-7-5-5 1-4 14-14 7-8 10-10 7-8 9-9 7-8 10-10z" fill="white"/>
<path transform="translate(889,94)" d="m0 0h15l9 2 11 6 7 7 5 8 2 5v4l-12 2-5-2-6-10-5-4-7-3h-14l-9 3-7 6-5 9-2 8v20l3 11 5 10 8 7 10 4h10l10-3 6-4 5-6 2-7 1-8 1-1 15-1 1 5-2 11-5 10-9 10-12 6-8 2h-21l-11-4-6-4-6-5-7-10-6-14-2-11v-16l3-12 6-12 8-9 10-6 8-3z" fill="white"/>
<path transform="translate(1726,1391)" d="m0 0h8l14 3 10 4 13 9 9 9 7 12 3 10v15l-3 10-6 11-11 11-12 6-5 1h-17l-7-2 1-6 6-9 16 1 10-4 6-5 5-9 1-4v-14l-6-12-8-8-13-8-14-4h-14l-10 5-7 9-3 8-1 10 3 9 4 5 4 3-1 6-6 10-4-2-5-5-6-9-4-10v-15l4-12 7-12 7-7 10-6 9-3z" fill="white"/>
<path transform="translate(175,1157)" d="m0 0h19l9 4 8 8 6 12 3 11 1 12-2 11-6 10-7 6-12 5-48 12-17 4h-4l-3-11 1-5 63-15 11-4 6-5 2-5v-16l-4-10-5-5-6-3h-9l-31 7-37 9h-3l-3-11v-4l13-4 49-12z" fill="white"/>
<path transform="translate(1867,723)" d="m0 0 3 1 3 11-1 4-66 18-10 5-4 5-1 3v15l4 10 4 5 5 3 9 1 21-5 48-13h5l3 12v3l-24 7-42 11-5 1h-16l-10-5-8-9-7-14-2-8v-17l3-10 6-8 10-6 20-6z" fill="white"/>
<path transform="translate(237,528)" d="m0 0h15l8 2-1 6-6 10-4-1h-14l-8 4-5 5-4 6-3 10v9l3 8 7 9 10 8 13 6 8 2h13l9-3 7-6 6-12v-15l-4-8-5-5-2-5 7-11 4 1 7 7 7 12 2 7v13l-4 13-7 11-5 6-10 7-11 4-7 1h-8l-17-4-15-8-11-10-7-11-4-10-1-6v-8l2-11 7-14 9-10 10-6z" fill="white"/>
<path transform="translate(1075,1801)" d="m0 0h14l9 2 11 6 7 6 7 11 5 13 2 10v14l-4 16-5 10-6 7-10 7-11 4-6 1h-16l-10-3-8-5-5-5-4-5-6-12v-3l7-1h9l6 11 7 6 9 3h11l10-3 8-7 5-12 1-5v-20l-3-11-6-11-8-7-5-2-10-1-11 2-9 6-5 8-3 13-16 1-1-3 4-15 5-9 5-6 9-6 10-4z" fill="white"/>
<path transform="translate(835,1790)" d="m0 0 14 1 3 3-6 28-9 45-3 14 9 1 22 4 1 1-1 12-1 1-10-1-71-14-1-3 3-11 12 2 21 4 4-23 11-56 1-7z" fill="white"/>
<path transform="translate(1761,500)" d="m0 0 3 1 6 10 1 4-15 26-8 13-4 8h55l7 10 1 5h-27l-46 1-16 9-13 8-6 2-6-10v-4l9-6 21-12 5-4 14-26 12-22z" fill="white"/>
<path transform="translate(1112,96)" d="m0 0 12 1 66 11 4 1-1 13-4 1-30-5-1 10-7 41-6 35-1 2-8-1-8-2 2-14 13-75-13-1-18-3-2-3z" fill="white"/>
<path transform="translate(359,1492)" d="m0 0h4l7 10v3l-17 13-16 13-13 10-15 12-8 5 3 5 12 15 4 6v3l-8 6-4-1-14-18-12-15-13-17-10-12 2-4 8-6 5 5 13 17 1 3 4-1 13-10 18-14 28-22z" fill="white"/>
<path transform="translate(1674,387)" d="m0 0 5 4 9 11 12 14 27 33-1 4-7 6-4-2-14-17-4-5-5 2-11 10-10 8-14 12-11 9-13 11-5 4-4-2-7-9 2-4 13-11 11-9 13-11 11-9 12-10 4-3h2l-4-7-13-15-3-4 2-4z" fill="white"/>
<path transform="translate(289,1383)" d="m0 0 4 2 5 9-1 4-22 12-12 7-8 13-15 26-13 22-3-1-6-10 1-5 13-22 12-19 3-5h-44l-13-1-7-13v-2l72 2 10-5 17-10z" fill="white"/>
<path transform="translate(1748,1304)" d="m0 0 6 2 29 13 42 19 16 7 2 3-6 12-2 1-35-16-45-20-5 10-9 21-8 16-10-4-2-1 1-6 9-19 15-34z" fill="white"/>
<path transform="translate(258,649)" d="m0 0 11 3 2 1-1 5-14 34-10 23-4 1-38-16-34-14-19-8-2-3 4-8 1-4 7 1 74 31 5 1 1-6 14-34z" fill="white"/>
<path transform="translate(1159,1790)" d="m0 0 5 1 19 95v5l-9 3h-6l-2-5-15-76-3-17 1-4z" fill="white"/>
<path transform="translate(806,110)" d="m0 0 3 1 10 43 10 45 2 7v5l-9 3h-6l-5-18-18-80 1-3z" fill="white"/>
<path transform="translate(1835,929)" d="m0 0h12l2 2 1 19v17l-2 1h-10l-2-5-1-15z" fill="white"/>
<path transform="translate(1377,1747)" d="m0 0h4l4 9-1 3-30 15h-5l-4-9 2-4z" fill="white"/>
<path transform="translate(628,235)" d="m0 0 3 1 4 8-2 4-19 10-9 5h-5l-5-10 9-6 20-10z" fill="white"/>
<path transform="translate(153,1050)" d="m0 0h12l1 1 2 26v11l-5 1h-7l-2-7-2-31z" fill="white"/>
</svg>